<mxfile host="Electron" modified="2023-05-28T11:07:53.237Z" agent="Mozilla/5.0 (Windows NT 10.0; Win64; x64) AppleWebKit/537.36 (KHTML, like Gecko) draw.io/21.2.8 Chrome/112.0.5615.165 Electron/24.2.0 Safari/537.36" etag="SX9Y9Y4iLqFqAVIHyT1n" version="21.2.8" type="device">
  <diagram name="Page-1" id="13e1069c-82ec-6db2-03f1-153e76fe0fe0">
    <mxGraphModel dx="1050" dy="621" grid="1" gridSize="10" guides="1" tooltips="1" connect="1" arrows="1" fold="1" page="1" pageScale="1" pageWidth="1100" pageHeight="850" background="none" math="0" shadow="0">
      <root>
        <mxCell id="0" />
        <mxCell id="1" parent="0" />
        <mxCell id="7baba1c4bc27f4b0-2" value="AbstractApplicationContext.java" style="shape=umlLifeline;perimeter=lifelinePerimeter;whiteSpace=wrap;container=1;collapsible=0;recursiveResize=0;outlineConnect=0;rounded=1;shadow=0;comic=0;labelBackgroundColor=none;strokeWidth=1;fontFamily=Verdana;fontSize=12;align=center;" parent="1" vertex="1">
          <mxGeometry x="140" y="70" width="200" height="590" as="geometry" />
        </mxCell>
        <mxCell id="7baba1c4bc27f4b0-10" value="" style="html=1;points=[];perimeter=orthogonalPerimeter;rounded=0;shadow=0;comic=0;labelBackgroundColor=none;strokeWidth=1;fontFamily=Verdana;fontSize=12;align=center;" parent="7baba1c4bc27f4b0-2" vertex="1">
          <mxGeometry x="95" y="110" width="10" height="40" as="geometry" />
        </mxCell>
        <mxCell id="7baba1c4bc27f4b0-3" value="AbstractBeanFactory.java" style="shape=umlLifeline;perimeter=lifelinePerimeter;whiteSpace=wrap;container=1;collapsible=0;recursiveResize=0;outlineConnect=0;rounded=1;shadow=0;comic=0;labelBackgroundColor=none;strokeWidth=1;fontFamily=Verdana;fontSize=12;align=center;" parent="1" vertex="1">
          <mxGeometry x="350" y="70" width="160" height="590" as="geometry" />
        </mxCell>
        <mxCell id="7baba1c4bc27f4b0-13" value="" style="html=1;points=[];perimeter=orthogonalPerimeter;rounded=0;shadow=0;comic=0;labelBackgroundColor=none;strokeWidth=1;fontFamily=Verdana;fontSize=12;align=center;" parent="7baba1c4bc27f4b0-3" vertex="1">
          <mxGeometry x="75" y="130" width="10" height="60" as="geometry" />
        </mxCell>
        <mxCell id="7baba1c4bc27f4b0-4" value="AbstractAutowireCapableBeanFactory.java" style="shape=umlLifeline;perimeter=lifelinePerimeter;whiteSpace=wrap;container=1;collapsible=0;recursiveResize=0;outlineConnect=0;rounded=1;shadow=0;comic=0;labelBackgroundColor=none;strokeWidth=1;fontFamily=Verdana;fontSize=12;align=center;" parent="1" vertex="1">
          <mxGeometry x="530" y="72" width="320" height="728" as="geometry" />
        </mxCell>
        <mxCell id="JJA6skcv4NGFod_4oPwT-1" value="" style="html=1;points=[];perimeter=orthogonalPerimeter;rounded=0;shadow=0;comic=0;labelBackgroundColor=none;strokeWidth=1;fontFamily=Verdana;fontSize=12;align=center;" vertex="1" parent="7baba1c4bc27f4b0-4">
          <mxGeometry x="155" y="120" width="10" height="40" as="geometry" />
        </mxCell>
        <mxCell id="JJA6skcv4NGFod_4oPwT-3" value="" style="html=1;points=[];perimeter=orthogonalPerimeter;outlineConnect=0;targetShapes=umlLifeline;portConstraint=eastwest;newEdgeStyle={&quot;edgeStyle&quot;:&quot;elbowEdgeStyle&quot;,&quot;elbow&quot;:&quot;vertical&quot;,&quot;curved&quot;:0,&quot;rounded&quot;:0};" vertex="1" parent="7baba1c4bc27f4b0-4">
          <mxGeometry x="150" y="220" width="10" height="160" as="geometry" />
        </mxCell>
        <mxCell id="JJA6skcv4NGFod_4oPwT-4" value="doCreateBean" style="html=1;align=left;spacingLeft=2;endArrow=block;rounded=0;edgeStyle=orthogonalEdgeStyle;curved=0;rounded=0;exitX=0.92;exitY=0.92;exitDx=0;exitDy=0;exitPerimeter=0;" edge="1" target="JJA6skcv4NGFod_4oPwT-3" parent="7baba1c4bc27f4b0-4" source="JJA6skcv4NGFod_4oPwT-1">
          <mxGeometry x="-0.2353" y="10" relative="1" as="geometry">
            <mxPoint x="170" y="170" as="sourcePoint" />
            <Array as="points">
              <mxPoint x="200" y="157" />
              <mxPoint x="200" y="230" />
            </Array>
            <mxPoint as="offset" />
          </mxGeometry>
        </mxCell>
        <mxCell id="JJA6skcv4NGFod_4oPwT-5" value="" style="html=1;points=[];perimeter=orthogonalPerimeter;outlineConnect=0;targetShapes=umlLifeline;portConstraint=eastwest;newEdgeStyle={&quot;edgeStyle&quot;:&quot;elbowEdgeStyle&quot;,&quot;elbow&quot;:&quot;vertical&quot;,&quot;curved&quot;:0,&quot;rounded&quot;:0};" vertex="1" parent="7baba1c4bc27f4b0-4">
          <mxGeometry x="150" y="260" width="20" height="40" as="geometry" />
        </mxCell>
        <mxCell id="JJA6skcv4NGFod_4oPwT-8" value="createBeanInstance" style="text;align=center;verticalAlign=middle;resizable=0;points=[];autosize=1;strokeColor=none;fillColor=none;" vertex="1" parent="7baba1c4bc27f4b0-4">
          <mxGeometry x="155" y="250" width="160" height="60" as="geometry" />
        </mxCell>
        <mxCell id="JJA6skcv4NGFod_4oPwT-10" value="populateBean" style="text;align=center;verticalAlign=middle;resizable=0;points=[];autosize=1;strokeColor=none;fillColor=none;" vertex="1" parent="7baba1c4bc27f4b0-4">
          <mxGeometry x="167.5" y="335" width="100" height="30" as="geometry" />
        </mxCell>
        <mxCell id="JJA6skcv4NGFod_4oPwT-11" value="" style="html=1;points=[];perimeter=orthogonalPerimeter;outlineConnect=0;targetShapes=umlLifeline;portConstraint=eastwest;newEdgeStyle={&quot;edgeStyle&quot;:&quot;elbowEdgeStyle&quot;,&quot;elbow&quot;:&quot;vertical&quot;,&quot;curved&quot;:0,&quot;rounded&quot;:0};" vertex="1" parent="7baba1c4bc27f4b0-4">
          <mxGeometry x="150" y="325" width="20" height="40" as="geometry" />
        </mxCell>
        <mxCell id="JJA6skcv4NGFod_4oPwT-14" value="instantiateBean" style="align=left;spacingLeft=2;endArrow=block;rounded=0;edgeStyle=orthogonalEdgeStyle;curved=0;rounded=0;" edge="1" target="JJA6skcv4NGFod_4oPwT-13" parent="7baba1c4bc27f4b0-4">
          <mxGeometry x="-0.1304" y="-90" relative="1" as="geometry">
            <mxPoint x="150" y="270" as="sourcePoint" />
            <Array as="points">
              <mxPoint x="120" y="270" />
              <mxPoint x="120" y="508" />
            </Array>
            <mxPoint as="offset" />
          </mxGeometry>
        </mxCell>
        <mxCell id="JJA6skcv4NGFod_4oPwT-13" value="" style="html=1;points=[];perimeter=orthogonalPerimeter;outlineConnect=0;targetShapes=umlLifeline;portConstraint=eastwest;newEdgeStyle={&quot;edgeStyle&quot;:&quot;elbowEdgeStyle&quot;,&quot;elbow&quot;:&quot;vertical&quot;,&quot;curved&quot;:0,&quot;rounded&quot;:0};" vertex="1" parent="7baba1c4bc27f4b0-4">
          <mxGeometry x="157.5" y="508" width="10" height="40" as="geometry" />
        </mxCell>
        <mxCell id="JJA6skcv4NGFod_4oPwT-21" value="" style="html=1;points=[];perimeter=orthogonalPerimeter;outlineConnect=0;targetShapes=umlLifeline;portConstraint=eastwest;newEdgeStyle={&quot;edgeStyle&quot;:&quot;elbowEdgeStyle&quot;,&quot;elbow&quot;:&quot;vertical&quot;,&quot;curved&quot;:0,&quot;rounded&quot;:0};" vertex="1" parent="7baba1c4bc27f4b0-4">
          <mxGeometry x="155" y="428" width="10" height="62" as="geometry" />
        </mxCell>
        <mxCell id="JJA6skcv4NGFod_4oPwT-22" value="applyPropertyValues" style="align=left;spacingLeft=2;endArrow=block;rounded=0;edgeStyle=orthogonalEdgeStyle;curved=0;rounded=0;exitX=0.037;exitY=0.833;exitDx=0;exitDy=0;exitPerimeter=0;" edge="1" target="JJA6skcv4NGFod_4oPwT-21" parent="7baba1c4bc27f4b0-4" source="JJA6skcv4NGFod_4oPwT-10">
          <mxGeometry relative="1" as="geometry">
            <mxPoint x="160" y="408" as="sourcePoint" />
            <Array as="points">
              <mxPoint x="190" y="360" />
              <mxPoint x="190" y="438" />
            </Array>
          </mxGeometry>
        </mxCell>
        <mxCell id="7baba1c4bc27f4b0-6" value="SimpleInstantiationStrategy.java" style="shape=umlLifeline;perimeter=lifelinePerimeter;whiteSpace=wrap;container=1;collapsible=0;recursiveResize=0;outlineConnect=0;rounded=1;shadow=0;comic=0;labelBackgroundColor=none;strokeWidth=1;fontFamily=Verdana;fontSize=12;align=center;" parent="1" vertex="1">
          <mxGeometry x="870" y="70" width="210" height="730" as="geometry" />
        </mxCell>
        <mxCell id="JJA6skcv4NGFod_4oPwT-18" value="" style="html=1;points=[];perimeter=orthogonalPerimeter;outlineConnect=0;targetShapes=umlLifeline;portConstraint=eastwest;newEdgeStyle={&quot;edgeStyle&quot;:&quot;elbowEdgeStyle&quot;,&quot;elbow&quot;:&quot;vertical&quot;,&quot;curved&quot;:0,&quot;rounded&quot;:0};" vertex="1" parent="7baba1c4bc27f4b0-6">
          <mxGeometry x="100" y="540" width="10" height="40" as="geometry" />
        </mxCell>
        <mxCell id="JJA6skcv4NGFod_4oPwT-25" value="setPropertyValues" style="verticalAlign=bottom;endArrow=block;edgeStyle=elbowEdgeStyle;elbow=vertical;curved=0;rounded=0;" edge="1" parent="7baba1c4bc27f4b0-6">
          <mxGeometry x="-0.0009" width="80" relative="1" as="geometry">
            <mxPoint x="-172.5" y="480" as="sourcePoint" />
            <mxPoint x="347.5" y="480" as="targetPoint" />
            <Array as="points">
              <mxPoint x="27.5" y="480" />
            </Array>
            <mxPoint as="offset" />
          </mxGeometry>
        </mxCell>
        <mxCell id="7baba1c4bc27f4b0-7" value="AbstractPropertyAccessor.java" style="shape=umlLifeline;perimeter=lifelinePerimeter;whiteSpace=wrap;container=1;collapsible=0;recursiveResize=0;outlineConnect=0;rounded=1;shadow=0;comic=0;labelBackgroundColor=none;strokeWidth=1;fontFamily=Verdana;fontSize=12;align=center;" parent="1" vertex="1">
          <mxGeometry x="1110" y="70" width="230" height="730" as="geometry" />
        </mxCell>
        <mxCell id="JJA6skcv4NGFod_4oPwT-24" value="" style="html=1;points=[];perimeter=orthogonalPerimeter;outlineConnect=0;targetShapes=umlLifeline;portConstraint=eastwest;newEdgeStyle={&quot;edgeStyle&quot;:&quot;elbowEdgeStyle&quot;,&quot;elbow&quot;:&quot;vertical&quot;,&quot;curved&quot;:0,&quot;rounded&quot;:0};" vertex="1" parent="7baba1c4bc27f4b0-7">
          <mxGeometry x="110" y="467" width="10" height="40" as="geometry" />
        </mxCell>
        <mxCell id="7baba1c4bc27f4b0-8" value="BeanFactory.java" style="shape=umlLifeline;perimeter=lifelinePerimeter;whiteSpace=wrap;container=1;collapsible=0;recursiveResize=0;outlineConnect=0;rounded=1;shadow=0;comic=0;labelBackgroundColor=none;strokeWidth=1;fontFamily=Verdana;fontSize=12;align=center;" parent="1" vertex="1">
          <mxGeometry y="70" width="120" height="580" as="geometry" />
        </mxCell>
        <mxCell id="7baba1c4bc27f4b0-9" value="" style="html=1;points=[];perimeter=orthogonalPerimeter;rounded=0;shadow=0;comic=0;labelBackgroundColor=none;strokeWidth=1;fontFamily=Verdana;fontSize=12;align=center;" parent="7baba1c4bc27f4b0-8" vertex="1">
          <mxGeometry x="55" y="110" width="10" height="440" as="geometry" />
        </mxCell>
        <mxCell id="7baba1c4bc27f4b0-17" value="createBean" style="verticalAlign=bottom;endArrow=block;labelBackgroundColor=none;fontFamily=Verdana;fontSize=12;edgeStyle=elbowEdgeStyle;elbow=vertical;" parent="1" source="7baba1c4bc27f4b0-13" target="JJA6skcv4NGFod_4oPwT-1" edge="1">
          <mxGeometry relative="1" as="geometry">
            <mxPoint x="510" y="220" as="sourcePoint" />
            <Array as="points" />
            <mxPoint x="650" y="220" as="targetPoint" />
          </mxGeometry>
        </mxCell>
        <mxCell id="7baba1c4bc27f4b0-11" value="getBean" style="verticalAlign=bottom;endArrow=block;labelBackgroundColor=none;fontFamily=Verdana;fontSize=12;edgeStyle=elbowEdgeStyle;elbow=vertical;" parent="1" source="7baba1c4bc27f4b0-9" edge="1">
          <mxGeometry relative="1" as="geometry">
            <mxPoint x="220" y="190" as="sourcePoint" />
            <mxPoint x="230" y="180" as="targetPoint" />
            <Array as="points">
              <mxPoint x="180" y="180" />
            </Array>
          </mxGeometry>
        </mxCell>
        <mxCell id="7baba1c4bc27f4b0-14" value="doGetBean" style="verticalAlign=bottom;endArrow=block;entryX=0;entryY=0;labelBackgroundColor=none;fontFamily=Verdana;fontSize=12;edgeStyle=elbowEdgeStyle;elbow=vertical;" parent="1" source="7baba1c4bc27f4b0-10" target="7baba1c4bc27f4b0-13" edge="1">
          <mxGeometry x="0.0556" relative="1" as="geometry">
            <mxPoint x="370" y="200" as="sourcePoint" />
            <Array as="points">
              <mxPoint x="290" y="200" />
            </Array>
            <mxPoint as="offset" />
          </mxGeometry>
        </mxCell>
        <mxCell id="7baba1c4bc27f4b0-5" value="AbstractNestablePropertyAccessor.java" style="shape=umlLifeline;perimeter=lifelinePerimeter;whiteSpace=wrap;container=1;collapsible=0;recursiveResize=0;outlineConnect=0;rounded=1;shadow=0;comic=0;labelBackgroundColor=none;strokeWidth=1;fontFamily=Verdana;fontSize=12;align=center;" parent="1" vertex="1">
          <mxGeometry x="1360" y="73" width="340" height="720" as="geometry" />
        </mxCell>
        <mxCell id="JJA6skcv4NGFod_4oPwT-28" value="" style="html=1;points=[];perimeter=orthogonalPerimeter;outlineConnect=0;targetShapes=umlLifeline;portConstraint=eastwest;newEdgeStyle={&quot;edgeStyle&quot;:&quot;elbowEdgeStyle&quot;,&quot;elbow&quot;:&quot;vertical&quot;,&quot;curved&quot;:0,&quot;rounded&quot;:0};" vertex="1" parent="7baba1c4bc27f4b0-5">
          <mxGeometry x="159" y="477" width="10" height="40" as="geometry" />
        </mxCell>
        <mxCell id="JJA6skcv4NGFod_4oPwT-19" value="实例化" style="rounded=1;whiteSpace=wrap;html=1;fillColor=#ffe6cc;strokeColor=#d79b00;" vertex="1" parent="1">
          <mxGeometry width="1080" height="60" as="geometry" />
        </mxCell>
        <mxCell id="JJA6skcv4NGFod_4oPwT-17" value="instantiate" style="verticalAlign=bottom;endArrow=block;edgeStyle=elbowEdgeStyle;elbow=vertical;curved=0;rounded=0;" edge="1" parent="1" source="JJA6skcv4NGFod_4oPwT-13" target="JJA6skcv4NGFod_4oPwT-18">
          <mxGeometry width="80" relative="1" as="geometry">
            <mxPoint x="693" y="552" as="sourcePoint" />
            <mxPoint x="950" y="552" as="targetPoint" />
          </mxGeometry>
        </mxCell>
        <mxCell id="JJA6skcv4NGFod_4oPwT-23" value="BeanDefinitionValueResolver.java" style="shape=umlLifeline;perimeter=lifelinePerimeter;whiteSpace=wrap;html=1;container=1;collapsible=0;recursiveResize=0;outlineConnect=0;rounded=1;shadow=0;comic=0;labelBackgroundColor=none;strokeWidth=1;fontFamily=Verdana;fontSize=12;align=center;" vertex="1" parent="1">
          <mxGeometry x="1720" y="77" width="210" height="731" as="geometry" />
        </mxCell>
        <mxCell id="JJA6skcv4NGFod_4oPwT-30" value="resolveValueIfNecessary" style="text;whiteSpace=wrap;html=1;" vertex="1" parent="JJA6skcv4NGFod_4oPwT-23">
          <mxGeometry x="-80" y="420" width="170" height="40" as="geometry" />
        </mxCell>
        <mxCell id="JJA6skcv4NGFod_4oPwT-31" value="" style="verticalAlign=bottom;endArrow=block;edgeStyle=elbowEdgeStyle;elbow=vertical;curved=0;rounded=0;" edge="1" parent="JJA6skcv4NGFod_4oPwT-23">
          <mxGeometry x="-0.0009" width="80" relative="1" as="geometry">
            <mxPoint x="-1020" y="443" as="sourcePoint" />
            <mxPoint x="102" y="449.5" as="targetPoint" />
            <Array as="points">
              <mxPoint x="-1020" y="443" />
            </Array>
            <mxPoint as="offset" />
          </mxGeometry>
        </mxCell>
        <mxCell id="JJA6skcv4NGFod_4oPwT-32" value="" style="html=1;points=[];perimeter=orthogonalPerimeter;outlineConnect=0;targetShapes=umlLifeline;portConstraint=eastwest;newEdgeStyle={&quot;edgeStyle&quot;:&quot;elbowEdgeStyle&quot;,&quot;elbow&quot;:&quot;vertical&quot;,&quot;curved&quot;:0,&quot;rounded&quot;:0};" vertex="1" parent="JJA6skcv4NGFod_4oPwT-23">
          <mxGeometry x="100" y="428" width="10" height="40" as="geometry" />
        </mxCell>
        <mxCell id="JJA6skcv4NGFod_4oPwT-27" value="setPropertyValue" style="verticalAlign=bottom;endArrow=block;edgeStyle=elbowEdgeStyle;elbow=vertical;curved=0;rounded=0;exitX=1;exitY=1;exitDx=0;exitDy=0;exitPerimeter=0;" edge="1" parent="1" source="JJA6skcv4NGFod_4oPwT-24" target="JJA6skcv4NGFod_4oPwT-28">
          <mxGeometry x="-0.0009" width="80" relative="1" as="geometry">
            <mxPoint x="1240" y="560" as="sourcePoint" />
            <mxPoint x="1500" y="550" as="targetPoint" />
            <Array as="points">
              <mxPoint x="1450" y="560" />
            </Array>
            <mxPoint as="offset" />
          </mxGeometry>
        </mxCell>
      </root>
    </mxGraphModel>
  </diagram>
</mxfile>
